<svg xmlns="http://www.w3.org/2000/svg" xmlns:svg="http://www.w3.org/2000/svg" id="svg2" width="86" height="86" version="1.1" viewBox="0 0 86 86"><metadata id="metadata4"/><rect style="fill:#ff6700;fill-opacity:1;stroke:none" id="rect6" width="86" height="86" x="0" y="0"/><path style="fill:#fff;fill-opacity:1" id="path8" d="m 16.5,17 c 0,5.922716 0,12.122431 0,17.5 5.92717,0 12.144169,0 17.5,0 0,-5.948254 0,-12.208423 0,-17.5 -6.061971,0 -11.900559,0 -17.5,0 z m 2.491624,2.491624 c 4.463925,0 8.248834,0 12.516751,0 0,4.229022 0,8.706785 0,12.516752 -4.62353,0 -8.178213,0 -12.516751,0 0,-4.259567 0,-8.810648 0,-12.516752 z"/><path style="fill:#fff;fill-opacity:1" id="path10" d="m 16.5,37 0,2.5 c 1.666666,0 3.333334,0 5,0 l 0,-2.5 c -1.666666,0 -3.333334,0 -5,0 z"/><path style="fill:#fff;fill-opacity:1" id="path12" d="m 16.5,42 c 0,2.500001 0,5 0,7.5 1.669921,0 3.339844,0 5.009765,0 l 0,-2.490234 -2.519531,0 0,-2.490235 2.519531,0 0,2.490235 2.490235,0 C 24,45.339844 24,43.669922 24,42 c -2.517443,0 -5.27377,0 -7.5,0 z"/><path style="fill:#fff;fill-opacity:1" id="path14" d="m 16.5,52 c 0,6.20227 0,11.645092 0,17.5 6.042358,0 12.508844,0 17.5,0 0,-6.026923 0,-12.456982 0,-17.5 -6.202416,0 -11.643639,0 -17.5,0 z m 2.491624,2.491625 c 4.623832,0 8.181811,0 12.516751,0 0,4.259566 0,8.810648 0,12.51675 -4.204922,0 -8.920102,0 -12.516751,0 0,-4.62383 0,-8.18181 0,-12.51675 z"/><path style="fill:#fff;fill-opacity:1" id="path16" d="m 21.5,22 c 0,2.721285 0,4.824381 0,7.5 2.5,0 5,0 7.5,0 0,-2.5 0,-4.999999 0,-7.5 -2.5,0 -5,0 -7.5,0 z"/><path style="fill:#fff;fill-opacity:1" id="path18" d="m 21.5,57 c 0,2.516403 0,5.273438 0,7.5 2.721285,0 4.824381,0 7.5,0 0,-2.5 0,-4.999999 0,-7.5 -2.516404,0 -5.273439,0 -7.5,0 z"/><path style="fill:#fff;fill-opacity:1" id="path20" d="m 26.492668,37 0,2.490235 -2.492668,0 0,2.490234 2.492668,0 0,2.519531 c 2.502444,0 5.004888,0 7.507332,0 l 0,-2.519531 -2.492669,0 0,-2.490234 2.492669,0 L 34,37 c -2.502444,0 -5.004888,0 -7.507332,0 z"/><path style="fill:#fff;fill-opacity:1" id="path22" d="m 26.5,47 0,2.5 c 2.5,0 5,0 7.5,0 L 34,47 c -2.517443,0 -5.273769,0 -7.5,0 z"/><path style="fill:#fff;fill-opacity:1" id="path24" d="m 34,39.5 0,2.490234 2.51462,0 0,2.519531 -2.51462,0 L 34,47 c 1.666666,0 3.333334,0 5,0 l 0,-2.490235 c 1.666667,0 3.333334,0 5,0 l 0,-2.519531 c -1.666666,0 -3.333333,0 -5,0 L 39,39.5 c -1.666666,0 -3.333334,0 -5,0 z"/><path style="fill:#fff;fill-opacity:1" id="path26" d="m 36.5,17 c 0,3.543995 0,6.562865 0,10 2.5,0 5,0 7.5,0 l 0,-2.492668 c -1.669921,0 -3.339843,0 -5.009766,0 0,-1.671555 0,-3.343109 0,-5.014664 l 2.490236,0 0,2.521994 2.51953,0 C 44,20.343109 44,18.671553 44,17 c -2.5,0 -5,0 -7.5,0 z"/><path style="fill:#fff;fill-opacity:1" id="path28" d="m 36.5,29.5 c 0,1.666666 0,3.333335 0,5 l 2.499999,0 0,-2.499999 2.500001,0 0,-2.500001 c -1.666666,0 -3.333335,0 -5,0 z"/><path style="fill:#fff;fill-opacity:1" id="path30" d="m 38.992668,47 0,2.48538 -2.492668,0 0,2.51462 c 2.502444,0 5.004887,0 7.507331,0 l 0,-2.51462 2.492669,0 L 46.5,47 c -2.519904,0 -5.278924,0 -7.507332,0 z"/><path style="fill:#fff;fill-opacity:1" id="path32" d="m 36.5,54.5 c 0,1.666666 0,3.333334 0,5 2.721285,0 4.824381,0 7.5,0 0,-1.666666 0,-3.333334 0,-5 l -2.51953,0 0,2.48538 -2.490236,0 0,-2.48538 z"/><path style="fill:#fff;fill-opacity:1" id="path34" d="m 38.990234,62 0,2.490234 -2.490234,0 c 0,1.669922 0,3.339844 0,5.009766 2.721285,0 4.82438,0 7.499999,0 l 0,-2.490235 -2.51953,0 0,-2.519531 2.51953,0 0,-2.490234 c -1.669921,0 -3.339843,0 -5.009765,0 z"/><path style="fill:#fff;fill-opacity:1" id="path36" d="m 41.492668,32 0,2.490234 -2.492669,0 0,2.519531 0,2.490235 2.492669,0 0,-2.490235 2.521993,0 0,2.490235 c 1.661779,0 3.32356,0 4.985338,0 l 0,-2.490235 -2.492668,0 0,-2.519531 -2.49267,0 0,-2.490234 z"/><path style="fill:#fff;fill-opacity:1" id="path38" d="m 44,29.5 0,2.500001 2.500001,0 0,2.499999 L 49,34.5 c 0,-1.666665 0,-3.333334 0,-5 -1.666666,0 -3.333333,0 -5,0 z"/><path style="fill:#fff;fill-opacity:1" id="path40" d="m 46.491208,54.5 c 0,1.669921 0,3.339844 0,5.009765 l 2.491207,0 c 0,1.660156 0,3.320314 0,4.980469 -1.660803,0 -3.32161,0 -4.982415,0 l 0,2.519531 2.491208,0 0,2.490235 2.491207,0 0,-2.490235 2.520516,0 c 0,-1.669921 0,-3.339844 0,-5.009765 1.660805,0 3.321609,0 4.982415,0 l 0,2.490234 c 2.500977,0 5.001954,0 7.502931,0 l 0,-2.490234 C 65.658851,62 67.329425,62 69,62 l 0,-2.490235 c -2.518427,0 -5.27583,0 -7.502931,0 l 0,2.490235 -2.491207,0 0,-2.490235 -2.520516,0 0,-2.519531 -2.491207,0 0,2.519531 -2.491208,0 c 0,-1.669921 0,-3.339844 0,-5.009765 -1.670574,0 -3.341149,0 -5.011723,0 z"/><path style="fill:#fff;fill-opacity:1" id="path42" d="m 46.499999,17 c 0,1.666666 0,3.333334 0,5 l 2.5,0 c 0,-1.666666 0,-3.333334 0,-5 z"/><path style="fill:#fff;fill-opacity:1" id="path44" d="m 48.990232,42 0,2.519531 -2.490233,0 0,2.490235 2.490233,0 c 0,1.669921 0,3.339844 0,5.009765 l 2.519532,0 0,2.490235 2.490235,0 0,-2.490235 2.490233,0 c 0,1.660156 0,3.320314 0,4.980469 l 2.519532,0 0,-2.490234 c 1.660156,0 3.320312,0 4.980468,0 l 0,2.490234 c 1.669922,0 3.339844,0 5.009765,0 l 0,-2.490234 -2.490233,0 c 0,-2.723478 0,-4.82552 0,-7.5 l -2.519532,0 0,2.490234 -2.490235,0 0,2.519531 -2.490233,0 0,-2.519531 c -2.516404,0 -5.273439,0 -7.5,0 0,-2.5 0,-4.999999 0,-7.5 z"/><path style="fill:#fff;fill-opacity:1" id="path46" d="m 51.5,17 c 0,6.30161 0,11.783075 0,17.5 6.038865,0 12.499039,0 17.5,0 l 0,-2.491624 C 69,26.310366 69,22.168886 69,17 63.103101,17 56.963732,17 51.5,17 z m 2.491626,2.491624 c 4.623528,0 8.178212,0 12.51675,0 0,4.444974 0,8.257135 0,12.516752 -4.172251,0 -8.344501,0 -12.51675,0 0,-4.570841 0,-8.204381 0,-12.516752 z"/><rect style="fill:#fff;fill-opacity:1" id="rect48" width="2.5" height="2.5" x="54" y="37"/><path style="fill:#fff;fill-opacity:1" id="path50" d="m 56.485378,39.5 0,2.490234 -2.485379,0 c 0,1.669922 0,3.339844 0,5.009766 l 2.485379,0 0,-2.490235 2.514621,0 c 0,-1.669921 0,-3.339844 0,-5.009765 z"/><path style="fill:#fff;fill-opacity:1" id="path52" d="m 53.999999,67 0,2.5 c 1.666666,0 3.333332,0 5,0 l 0,-2.5 c -1.666668,0 -3.333334,0 -5,0 z"/><path style="fill:#fff;fill-opacity:1" id="path54" d="m 56.5,22 c 0,2.500001 0,5 0,7.5 2.5,0 5,0 7.5,0 0,-2.5 0,-4.999999 0,-7.5 -2.5,0 -5,0 -7.5,0 z"/><path style="fill:#fff;fill-opacity:1" id="path56" d="m 59,37 0,2.490235 2.492668,0 0,2.490234 2.492669,0 0,2.519531 2.521995,0 c 0,-1.669921 0,-3.339844 0,-5.009765 L 69,39.490235 69,37 c -3.385826,0 -7.037847,0 -10,0 z"/><rect style="fill:#fff;fill-opacity:1" id="rect58" width="2.5" height="2.5" x="59" y="47"/><rect style="fill:#fff;fill-opacity:1" id="rect60" width="2.5" height="2.5" x="66.5" y="67"/></svg>