<?xml version="1.0" encoding="UTF-8" standalone="no"?>
<svg
   xmlns:dc="http://purl.org/dc/elements/1.1/"
   xmlns:cc="http://creativecommons.org/ns#"
   xmlns:rdf="http://www.w3.org/1999/02/22-rdf-syntax-ns#"
   xmlns:svg="http://www.w3.org/2000/svg"
   xmlns="http://www.w3.org/2000/svg"
   xmlns:sodipodi="http://sodipodi.sourceforge.net/DTD/sodipodi-0.dtd"
   xmlns:inkscape="http://www.inkscape.org/namespaces/inkscape"
   version="1.1"
   width="232"
   height="232"
   viewBox="0 0 232 232"
   id="svg2"
   inkscape:version="0.48.4 r9939"
   sodipodi:docname="cover-image.svg">
  <metadata
     id="metadata879">
    <rdf:RDF>
      <cc:Work
         rdf:about="">
        <dc:format>image/svg+xml</dc:format>
        <dc:type
           rdf:resource="http://purl.org/dc/dcmitype/StillImage" />
      </cc:Work>
    </rdf:RDF>
  </metadata>
  <desc
     id="desc4" />
  <path
     style="fill:#ffffff;fill-opacity:0.5"
     d="m 0,0 c 0,20.106665 0,37.213703 0,56 19.385661,0 40.037297,0 56,0 C 56,35.119172 56,18.936309 56,0 35.820767,0 18.798507,0 0,0 z m 8,8 c 14.776094,0 26.142134,0 40,0 0,13.39343 0,28.041927 0,40 C 34.60657,48 19.958073,48 8,48 8,33.223906 8,21.857866 8,8 z"
     id="rect13"
     inkscape:connector-curvature="0"
     sodipodi:nodetypes="cccccccccc" />
  <path
     style="fill:#ffffff;fill-opacity:0.5"
     d="m 0,72 c 0,5.333333 0,10.666667 0,16 l 8,0 0,-8 8,0 0,-8 C 10.666667,72 5.3333333,72 0,72 z"
     id="rect27"
     inkscape:connector-curvature="0"
     sodipodi:nodetypes="ccccccc" />
  <path
     style="fill:#ffffff;fill-opacity:0.5"
     d="m 16,88 0,8 -8,0 0,8 -8,0 c 0,8 0,16 0,24 l 8,0 0,8 8,0 c 0,-5.33333 0,-10.66667 0,-16 l -8,0 0,-8 8,0 0,-8 c 5.333333,0 10.666667,0 16,0 l 0,-8 -8,0 0,-8 z"
     id="rect31"
     inkscape:connector-curvature="0"
     sodipodi:nodetypes="ccccccccccccccccccc" />
  <path
     style="fill:#ffffff;fill-opacity:0.5"
     d="m 0,144 c 0,5.33333 0,10.66667 0,16 5.3333333,0 10.666667,0 16,0 l 0,-8 8,0 0,8 8,0 0,-8 8,0 0,-8 c -13.39343,0 -28.041927,0 -40,0 z"
     id="rect37"
     inkscape:connector-curvature="0"
     sodipodi:nodetypes="ccccccccccc" />
  <path
     style="fill:#ffffff;fill-opacity:0.5"
     d="m 0,176 c 0,19.84898 0,37.25621 0,56 19.385661,0 40.037297,0 56,0 0,-19.38566 0,-40.0373 0,-56 -19.821602,0 -36.615707,0 -56,0 z m 8,8 c 13.611095,0 28.156312,0 40,0 0,13.72589 0,28.59894 0,40 -14.205045,0 -26.384384,0 -40,0 0,-13.77313 0,-28.76275 0,-40 z"
     id="rect41"
     inkscape:connector-curvature="0"
     sodipodi:nodetypes="cccccccccc" />
  <path
     style="fill:#ffffff;fill-opacity:0.5"
     d="m 16,16 c 0,8.054707 0,16.875713 0,24 8.712801,0 15.440427,0 24,0 0,-8 0,-16 0,-24 -8.054707,0 -16.875713,0 -24,0 z"
     id="rect79"
     inkscape:connector-curvature="0"
     sodipodi:nodetypes="ccccc" />
  <rect
     x="16"
     y="112"
     id="rect91"
     width="8"
     height="8"
     style="fill:#ffffff;fill-opacity:0.5" />
  <rect
     x="16"
     y="160"
     id="rect95"
     width="8"
     height="8"
     style="fill:#ffffff;fill-opacity:0.5" />
  <path
     style="fill:#ffffff;fill-opacity:0.5"
     d="m 16,192 c 0,8 0,16 0,24 8,0 16,0 24,0 0,-8 0,-16 0,-24 -8,0 -16,0 -24,0 z"
     id="rect99"
     inkscape:connector-curvature="0"
     sodipodi:nodetypes="ccccc" />
  <path
     style="fill:#ffffff;fill-opacity:0.5"
     d="m 40,104 0,8 -8,0 0,8 -8,0 0,8 c 8,0 16,0 24,0 l 0,-8 8,0 0,-8 -8,0 0,-8 z"
     id="rect119"
     inkscape:connector-curvature="0"
     sodipodi:nodetypes="ccccccccccccc" />
  <path
     style="fill:#ffffff;fill-opacity:0.5"
     d="m 32,64 c 0,5.333333 0,10.666667 0,16 l 8,0 0,8 8,0 8,0 0,-8 -8,0 0,-8 c 5.333333,0 10.666667,0 16,0 l 0,-8 c -11.776985,0 -20.749561,0 -32,0 z"
     id="rect145"
     inkscape:connector-curvature="0"
     sodipodi:nodetypes="cccccccccccc" />
  <rect
     x="32"
     y="88"
     id="rect149"
     width="8"
     height="8"
     style="fill:#ffffff;fill-opacity:0.5" />
  <path
     style="fill:#ffffff;fill-opacity:0.5"
     d="m 40,152 0,8 -8,0 0,8 c 11.776985,0 20.749561,0 32,0 l 0,-8 c -5.333333,0 -10.666667,0 -16,0 l 0,-8 z"
     id="rect157"
     inkscape:connector-curvature="0"
     sodipodi:nodetypes="ccccccccc" />
  <rect
     x="40"
     y="136"
     id="rect185"
     width="8"
     height="8"
     style="fill:#ffffff;fill-opacity:0.5" />
  <path
     style="fill:#ffffff;fill-opacity:0.5"
     d="m 64,40 c 0,8 0,16 0,24 l 8,0 c 0,5.333333 0,10.666667 0,16 l -8,0 0,8 -8,0 0,8 -8,0 0,8 8,0 0,8 8,0 0,-8 8,0 0,-8 8,0 0,-8 8,0 0,-8 -8,0 c 0,-8.712801 0,-15.440427 0,-24 l -8,0 0,-8 8,0 0,-8 c -5.333333,0 -10.666667,0 -16,0 z"
     id="rect213"
     inkscape:connector-curvature="0"
     sodipodi:nodetypes="ccccccccccccccccccccccccccc" />
  <rect
     x="48"
     y="128"
     id="rect217"
     width="8"
     height="8"
     style="fill:#ffffff;fill-opacity:0.5" />
  <path
     style="fill:#ffffff;fill-opacity:0.5"
     d="m 80,104 c 0,5.33333 0,10.66667 0,16 l -8,0 0,-8 -8,0 0,8 -8,0 0,8 8,0 0,8 8,0 0,8 c -8,0 -16,0 -24,0 l 0,8 c 5.333333,0 10.666667,0 16,0 l 0,8 8,0 0,8 -8,0 c 0,10.83383 0,22.52101 0,32 5.333333,0 10.666667,0 16,0 l 0,-8 c 5.333333,0 10.666667,0 16,0 l 0,-8 c -8,0 -16,0 -24,0 l 0,-8 c 13.39343,0 28.04193,0 40,0 l 0,-8 8,0 0,-8 -8,0 0,-8 c -5.33333,0 -10.66667,0 -16,0 l 0,8 8,0 0,8 c -8,0 -16,0 -24,0 l 0,-8 8,0 c 0,-5.33333 0,-10.66667 0,-16 l -8,0 0,-8 c 5.333333,0 10.666667,0 16,0 l 0,-8 -8,0 c 0,-8 0,-16 0,-24 z"
     id="rect219"
     inkscape:connector-curvature="0"
     sodipodi:nodetypes="ccccccccccccccccccccccccccccccccccccccccccccccc" />
  <path
     style="fill:#ffffff;fill-opacity:0.5"
     d="m 72,0 0,8 -8,0 0,8 8,0 c 0,5.333333 0,10.666667 0,16 l 8,0 0,-8 8,0 0,-8 -8,0 0,-8 8,0 0,-8 C 82.666667,0 77.333333,0 72,0 z"
     id="rect251"
     inkscape:connector-curvature="0"
     sodipodi:nodetypes="ccccccccccccccc" />
  <rect
     x="72"
     y="216"
     id="rect321"
     width="8"
     height="8"
     style="fill:#ffffff;fill-opacity:0.5" />
  <path
     style="fill:#ffffff;fill-opacity:0.5"
     d="m 88,24 0,8 -8,0 0,8 8,0 0,8 8,0 c 0,-5.333333 0,-10.666667 0,-16 l 8,0 0,-8 c -5.333333,0 -10.666667,0 -16,0 z"
     id="rect327"
     inkscape:connector-curvature="0"
     sodipodi:nodetypes="ccccccccccc" />
  <rect
     x="80"
     y="48"
     id="rect329"
     width="8"
     height="8"
     style="fill:#ffffff;fill-opacity:0.5" />
  <path
     style="fill:#ffffff;fill-opacity:0.5"
     d="m 96,192 0,8 -8,0 0,8 -8,0 0,8 c 5.333333,0 10.666667,0 16,0 l 0,8 c 5.33333,0 10.66667,0 16,0 l 0,-8 -8,0 0,-8 c 11.77699,0 20.74956,0 32,0 l 0,-8 -8,0 0,-8 -8,0 0,8 c -5.33333,0 -10.66667,0 -16,0 l 0,-8 z"
     id="rect349"
     inkscape:connector-curvature="0"
     sodipodi:nodetypes="ccccccccccccccccccccc" />
  <rect
     x="88"
     y="8"
     id="rect351"
     width="8"
     height="8"
     style="fill:#ffffff;fill-opacity:0.5" />
  <path
     style="fill:#ffffff;fill-opacity:0.5"
     d="m 144,24 0,8 -8,0 0,8 -8,0 0,-8 -8,0 0,8 -16,0 0,8 8,0 0,16 8,0 0,-16 8,0 0,16 -8,0 0,8 -8,0 0,-8 -8,0 0,-16 -8,0 0,8 -8,0 0,8 8,0 0,8 8,0 0,8 -8,0 0,16 8,0 0,-8 8,0 0,-8 16,0 0,-8 8,0 0,-24 8,0 0,-8 8,0 0,-16 z m 8,40 0,8 -8,0 0,8 8,0 0,8 -8,0 0,8 -8,0 0,8 -8,0 0,8 8,0 0,8 -8,0 c 0,5.33333 0,10.66667 0,16 5.33333,0 10.66667,0 16,0 0,-10.92143 0,-22.90602 0,-32 l 8,0 0,-8 8,0 0,8 8,0 c 0,5.33333 0,10.66667 0,16 l 8,0 0,8 8,0 c 0,-5.33333 0,-10.66667 0,-16 l 8,0 c 0,5.33333 0,10.66667 0,16 l -8,0 0,8 8,0 0,8 8,0 c 0,-5.33333 0,-10.66667 0,-16 l 8,0 c 0,-5.33333 0,-10.66667 0,-16 l 8,0 0,-8 -8,0 c 0,-5.333333 0,-10.666667 0,-16 l -8,0 0,-8 -8,0 c 0,-5.333333 0,-10.666667 0,-16 -5.33333,0 -10.66667,0 -16,0 l 0,8 8,0 0,8 -8,0 0,8 0,8 8,0 0,-8 8,0 0,8 8,0 0,8 -8,0 0,-8 -8,0 0,8 -8,0 0,-8 -8,0 0,-8 -8,0 c 0,-5.333333 0,-10.666667 0,-16 l 8,0 0,-8 c -5.33333,0 -10.66667,0 -16,0 z m -8,24 0,-8 -8,0 0,8 z"
     id="rect359"
     inkscape:connector-curvature="0"
     sodipodi:nodetypes="cccccccccccccccccccccccccccccccccccccccccccccccccccccccccccccccccccccccccccccccccccccccccccccccccccccccccccccccccccccccccc" />
  <rect
     x="88"
     y="96"
     id="rect361"
     width="8"
     height="8"
     style="fill:#ffffff;fill-opacity:0.5" />
  <rect
     x="96"
     y="0"
     id="rect373"
     width="8"
     height="8"
     style="fill:#ffffff;fill-opacity:0.5" />
  <path
     style="fill:#ffffff;fill-opacity:0.5"
     d="m 104,96 c 0,5.33333 0,10.66667 0,16 l -8,0 0,8 8,0 c 0,8.7128 0,15.44043 0,24 l 8,0 0,8 c 5.33333,0 10.66667,0 16,0 0,-5.33333 0,-10.66667 0,-16 -5.33333,0 -10.66667,0 -16,0 l 0,-8 8,0 0,-8 -8,0 c 0,-5.33333 0,-10.66667 0,-16 l 8,0 0,-8 c -5.33333,0 -10.66667,0 -16,0 z"
     id="rect387"
     inkscape:connector-curvature="0"
     sodipodi:nodetypes="ccccccccccccccccccc" />
  <path
     style="fill:#ffffff;fill-opacity:0.5"
     d="m 112,0 0,8 -8,0 0,8 c 5.33333,0 10.66667,0 16,0 l 0,-8 8,0 0,-8 c -5.33333,0 -10.66667,0 -16,0 z"
     id="rect401"
     inkscape:connector-curvature="0"
     sodipodi:nodetypes="ccccccccc" />
  <rect
     x="112"
     y="24"
     id="rect437"
     width="8"
     height="8"
     style="fill:#ffffff;fill-opacity:0.5" />
  <path
     style="fill:#ffffff;fill-opacity:0.5"
     d="m 120,168 0,8 -8,0 c 0,5.33333 0,10.66667 0,16 l 8,0 0,-8 8,0 c 0,-5.33333 0,-10.66667 0,-16 z"
     id="rect457"
     inkscape:connector-curvature="0"
     sodipodi:nodetypes="ccccccccc" />
  <rect
     x="112"
     y="224"
     id="rect463"
     width="8"
     height="8"
     style="fill:#ffffff;fill-opacity:0.5" />
  <path
     style="fill:#ffffff;fill-opacity:0.5"
     d="m 120,88 0,8 c 5.33333,0 10.66667,0 16,0 l 0,-8 c -5.33333,0 -10.66667,0 -16,0 z"
     id="rect475"
     inkscape:connector-curvature="0"
     sodipodi:nodetypes="ccccc" />
  <rect
     x="120"
     y="112"
     id="rect477"
     width="8"
     height="8"
     style="fill:#ffffff;fill-opacity:0.5" />
  <path
     style="fill:#ffffff;fill-opacity:0.5"
     d="m 152,0 0,8 c -8,0 -16,0 -24,0 l 0,8 8,0 0,8 8,0 0,-8 c 5.33333,0 10.66667,0 16,0 l 0,-8 8,0 0,-8 c -5.33333,0 -10.66667,0 -16,0 z"
     id="rect491"
     inkscape:connector-curvature="0"
     sodipodi:nodetypes="ccccccccccccc" />
  <rect
     x="128"
     y="24"
     id="rect493"
     width="8"
     height="8"
     style="fill:#ffffff;fill-opacity:0.5" />
  <path
     style="fill:#ffffff;fill-opacity:0.5"
     d="m 152,120 c 0,5.33333 0,10.66667 0,16 l -8,0 0,8 -8,0 0,8 8,0 0,8 c -5.33333,0 -10.66667,0 -16,0 l 0,8 8,0 0,8 8,0 0,-8 8,0 c 0,8 0,16 0,24 l -8,0 0,8 c 5.33333,0 10.66667,0 16,0 l 0,8 -8,0 0,8 c 8,0 16,0 24,0 l 0,-8 -8,0 0,-8 c 14.19229,0 25.78502,0 40,0 0,-5.33333 0,-10.66667 0,-16 l -8,0 0,-8 8,0 0,8 8,0 c 0,-5.33333 0,-10.66667 0,-16 l 8,0 c 0,5.33333 0,10.66667 0,16 l 8,0 c 0,-8 0,-16 0,-24 -14.19229,0 -25.78502,0 -40,0 l 0,-8 -8,0 0,8 -8,0 0,-8 8,0 0,-8 -8,0 0,-8 c -5.33333,0 -10.66667,0 -16,0 0,-5.33333 0,-10.66667 0,-16 z m 0,24 8,0 0,8 8,0 0,8 c -5.33333,0 -10.66667,0 -16,0 l 0,-8 z m 16,24 c 8,0 16,0 24,0 0,8 0,16 0,24 -8,0 -16,0 -24,0 0,-8 0,-16 0,-24 z"
     id="rect511"
     inkscape:connector-curvature="0"
     sodipodi:nodetypes="cccccccccccccccccccccccccccccccccccccccccccccccccccccccccccccccc" />
  <path
     style="fill:#ffffff;fill-opacity:0.5"
     d="m 128,184 0,8 c 5.33333,0 10.66667,0 16,0 l 0,-8 c -5.33333,0 -10.66667,0 -16,0 z"
     id="rect513"
     inkscape:connector-curvature="0"
     sodipodi:nodetypes="ccccc" />
  <path
     style="fill:#ffffff;fill-opacity:0.5"
     d="m 128,216 0,8 8,0 0,8 c 5.33333,0 10.66667,0 16,0 l 0,-8 -8,0 0,-8 c -5.33333,0 -10.66667,0 -16,0 z"
     id="rect517"
     inkscape:connector-curvature="0"
     sodipodi:nodetypes="ccccccccc" />
  <rect
     x="144"
     y="48"
     id="rect557"
     width="8"
     height="8"
     style="fill:#ffffff;fill-opacity:0.5" />
  <rect
     x="152"
     y="40"
     id="rect581"
     width="8"
     height="8"
     style="fill:#ffffff;fill-opacity:0.5" />
  <rect
     x="160"
     y="24"
     id="rect611"
     width="8"
     height="8"
     style="fill:#ffffff;fill-opacity:0.5" />
  <rect
     x="160"
     y="48"
     id="rect613"
     width="8"
     height="8"
     style="fill:#ffffff;fill-opacity:0.5" />
  <path
     style="fill:#ffffff;fill-opacity:0.5"
     d="m 176,0 c 0,19.025904 0,39.901059 0,56 19.32393,0 39.99847,0 56,0 0,-18.867701 0,-39.677597 0,-56 -18.92207,0 -38.71313,0 -56,0 z m 8,8 c 14.77609,0 26.14213,0 40,0 0,13.611095 0,28.156312 0,40 -13.6111,0 -28.15631,0 -40,0 0,-14.776094 0,-26.142134 0,-40 z"
     id="rect657"
     inkscape:connector-curvature="0"
     sodipodi:nodetypes="cccccccccc" />
  <rect
     x="176"
     y="176"
     id="rect687"
     width="8"
     height="8"
     style="fill:#ffffff;fill-opacity:0.5" />
  <rect
     x="176"
     y="224"
     id="rect691"
     width="8"
     height="8"
     style="fill:#ffffff;fill-opacity:0.5" />
  <path
     style="fill:#ffffff;fill-opacity:0.5"
     d="m 208,208 0,8 c -8,0 -16,0 -24,0 l 0,8 8,0 0,8 c 10.83383,0 22.52101,0 32,0 l 0,-8 8,0 0,-8 0,-8 c -8,0 -16,0 -24,0 z"
     id="rect715"
     inkscape:connector-curvature="0"
     sodipodi:nodetypes="cccccccccccc" />
  <path
     style="fill:#ffffff;fill-opacity:0.5"
     d="m 192,16 c 0,8.054707 0,16.875713 0,24 8.05471,0 16.87571,0 24,0 0,-8.712801 0,-15.440427 0,-24 -8,0 -16,0 -24,0 z"
     id="rect719"
     inkscape:connector-curvature="0"
     sodipodi:nodetypes="ccccc" />
  <rect
     x="200"
     y="144"
     id="rect775"
     width="8"
     height="8"
     style="fill:#ffffff;fill-opacity:0.5" />
  <rect
     x="208"
     y="72"
     id="rect799"
     width="8"
     height="8"
     style="fill:#ffffff;fill-opacity:0.5" />
  <rect
     x="208"
     y="136"
     id="rect803"
     width="8"
     height="8"
     style="fill:#ffffff;fill-opacity:0.5" />
  <rect
     x="216"
     y="64"
     id="rect821"
     width="8"
     height="8"
     style="fill:#ffffff;fill-opacity:0.5" />
  <path
     style="fill:#ffffff;fill-opacity:0.5"
     d="m 224,72 c 0,5.333333 0,10.666667 0,16 l -8,0 0,8 8,0 c 0,8.7128 0,15.44043 0,24 l 8,0 c 0,-18.40014 0,-31.414467 0,-48 z"
     id="rect823"
     inkscape:connector-curvature="0"
     sodipodi:nodetypes="ccccccccc" />
  <path
     style="fill:#ffffff;fill-opacity:0.5"
     d="m 216,128 0,8 8,0 c 0,5.33333 0,10.66667 0,16 l 8,0 c 0,-8.7128 0,-15.44043 0,-24 -5.33333,0 -10.66667,0 -16,0 z"
     id="rect825"
     inkscape:connector-curvature="0"
     sodipodi:nodetypes="ccccccc" />
</svg>
