<svg xmlns="http://www.w3.org/2000/svg" xmlns:svg="http://www.w3.org/2000/svg" width="232" height="232" version="1.1" viewBox="0 0 232 232"><metadata/><path style="fill:#000;fill-opacity:.50196081" d="m 0,0 c 0,20.106665 0,37.213703 0,56 19.385661,0 40.037297,0 56,0 C 56,35.119172 56,18.936309 56,0 35.820767,0 18.798507,0 0,0 z m 8,8 c 14.776094,0 26.142134,0 40,0 0,13.39343 0,28.041927 0,40 C 34.60657,48 19.958073,48 8,48 8,33.223906 8,21.857866 8,8 z"/><path style="fill:#000;fill-opacity:.50196081" d="m 0,72 c 0,5.333333 0,10.666667 0,16 l 8,0 0,-8 8,0 0,-8 C 10.666667,72 5.3333333,72 0,72 z"/><path style="fill:#000;fill-opacity:.50196081" d="m 16,88 0,8 -8,0 0,8 -8,0 c 0,8 0,16 0,24 l 8,0 0,8 8,0 c 0,-5.33333 0,-10.66667 0,-16 l -8,0 0,-8 8,0 0,-8 c 5.333333,0 10.666667,0 16,0 l 0,-8 -8,0 0,-8 z"/><path style="fill:#000;fill-opacity:.50196081" d="m 0,144 c 0,5.33333 0,10.66667 0,16 5.3333333,0 10.666667,0 16,0 l 0,-8 8,0 0,8 8,0 0,-8 8,0 0,-8 c -13.39343,0 -28.041927,0 -40,0 z"/><path style="fill:#000;fill-opacity:.50196081" d="m 0,176 c 0,19.84898 0,37.25621 0,56 19.385661,0 40.037297,0 56,0 0,-19.38566 0,-40.0373 0,-56 -19.821602,0 -36.615707,0 -56,0 z m 8,8 c 13.611095,0 28.156312,0 40,0 0,13.72589 0,28.59894 0,40 -14.205045,0 -26.384384,0 -40,0 0,-13.77313 0,-28.76275 0,-40 z"/><path style="fill:#000;fill-opacity:.50196081" d="m 16,16 c 0,8.054707 0,16.875713 0,24 8.712801,0 15.440427,0 24,0 0,-8 0,-16 0,-24 -8.054707,0 -16.875713,0 -24,0 z"/><rect width="8" height="8" x="16" y="112" style="fill:#000;fill-opacity:.50196081"/><rect width="8" height="8" x="16" y="160" style="fill:#000;fill-opacity:.50196081"/><path style="fill:#000;fill-opacity:.50196081" d="m 16,192 c 0,8 0,16 0,24 8,0 16,0 24,0 0,-8 0,-16 0,-24 -8,0 -16,0 -24,0 z"/><path style="fill:#000;fill-opacity:.50196081" d="m 40,104 0,8 -8,0 0,8 -8,0 0,8 c 8,0 16,0 24,0 l 0,-8 8,0 0,-8 -8,0 0,-8 z"/><path style="fill:#000;fill-opacity:.50196081" d="m 32,64 c 0,5.333333 0,10.666667 0,16 l 8,0 0,8 8,0 8,0 0,-8 -8,0 0,-8 c 5.333333,0 10.666667,0 16,0 l 0,-8 c -11.776985,0 -20.749561,0 -32,0 z"/><rect width="8" height="8" x="32" y="88" style="fill:#000;fill-opacity:.50196081"/><path style="fill:#000;fill-opacity:.50196081" d="m 40,152 0,8 -8,0 0,8 c 11.776985,0 20.749561,0 32,0 l 0,-8 c -5.333333,0 -10.666667,0 -16,0 l 0,-8 z"/><rect width="8" height="8" x="40" y="136" style="fill:#000;fill-opacity:.50196081"/><path style="fill:#000;fill-opacity:.50196081" d="m 64,40 c 0,8 0,16 0,24 l 8,0 c 0,5.333333 0,10.666667 0,16 l -8,0 0,8 -8,0 0,8 -8,0 0,8 8,0 0,8 8,0 0,-8 8,0 0,-8 8,0 0,-8 8,0 0,-8 -8,0 c 0,-8.712801 0,-15.440427 0,-24 l -8,0 0,-8 8,0 0,-8 c -5.333333,0 -10.666667,0 -16,0 z"/><rect width="8" height="8" x="48" y="128" style="fill:#000;fill-opacity:.50196081"/><path style="fill:#000;fill-opacity:.50196081" d="m 80,104 c 0,5.33333 0,10.66667 0,16 l -8,0 0,-8 -8,0 0,8 -8,0 0,8 8,0 0,8 8,0 0,8 c -8,0 -16,0 -24,0 l 0,8 c 5.333333,0 10.666667,0 16,0 l 0,8 8,0 0,8 -8,0 c 0,10.83383 0,22.52101 0,32 5.333333,0 10.666667,0 16,0 l 0,-8 c 5.333333,0 10.666667,0 16,0 l 0,-8 c -8,0 -16,0 -24,0 l 0,-8 c 13.39343,0 28.04193,0 40,0 l 0,-8 8,0 0,-8 -8,0 0,-8 c -5.33333,0 -10.66667,0 -16,0 l 0,8 8,0 0,8 c -8,0 -16,0 -24,0 l 0,-8 8,0 c 0,-5.33333 0,-10.66667 0,-16 l -8,0 0,-8 c 5.333333,0 10.666667,0 16,0 l 0,-8 -8,0 c 0,-8 0,-16 0,-24 z"/><path style="fill:#000;fill-opacity:.50196081" d="m 72,0 0,8 -8,0 0,8 8,0 c 0,5.333333 0,10.666667 0,16 l 8,0 0,-8 8,0 0,-8 -8,0 0,-8 8,0 0,-8 C 82.666667,0 77.333333,0 72,0 z"/><rect width="8" height="8" x="72" y="216" style="fill:#000;fill-opacity:.50196081"/><path style="fill:#000;fill-opacity:.50196081" d="m 88,24 0,8 -8,0 0,8 8,0 0,8 8,0 c 0,-5.333333 0,-10.666667 0,-16 l 8,0 0,-8 c -5.333333,0 -10.666667,0 -16,0 z"/><rect width="8" height="8" x="80" y="48" style="fill:#000;fill-opacity:.50196081"/><path style="fill:#000;fill-opacity:.50196081" d="m 96,192 0,8 -8,0 0,8 -8,0 0,8 c 5.333333,0 10.666667,0 16,0 l 0,8 c 5.33333,0 10.66667,0 16,0 l 0,-8 -8,0 0,-8 c 11.77699,0 20.74956,0 32,0 l 0,-8 -8,0 0,-8 -8,0 0,8 c -5.33333,0 -10.66667,0 -16,0 l 0,-8 z"/><rect width="8" height="8" x="88" y="8" style="fill:#000;fill-opacity:.50196081"/><path style="fill:#000;fill-opacity:.50196081" d="m 144,24 0,8 -8,0 0,8 -8,0 0,-8 -8,0 0,8 -16,0 0,8 8,0 0,16 8,0 0,-16 8,0 0,16 -8,0 0,8 -8,0 0,-8 -8,0 0,-16 -8,0 0,8 -8,0 0,8 8,0 0,8 8,0 0,8 -8,0 0,16 8,0 0,-8 8,0 0,-8 16,0 0,-8 8,0 0,-24 8,0 0,-8 8,0 0,-16 z m 8,40 0,8 -8,0 0,8 8,0 0,8 -8,0 0,8 -8,0 0,8 -8,0 0,8 8,0 0,8 -8,0 c 0,5.33333 0,10.66667 0,16 5.33333,0 10.66667,0 16,0 0,-10.92143 0,-22.90602 0,-32 l 8,0 0,-8 8,0 0,8 8,0 c 0,5.33333 0,10.66667 0,16 l 8,0 0,8 8,0 c 0,-5.33333 0,-10.66667 0,-16 l 8,0 c 0,5.33333 0,10.66667 0,16 l -8,0 0,8 8,0 0,8 8,0 c 0,-5.33333 0,-10.66667 0,-16 l 8,0 c 0,-5.33333 0,-10.66667 0,-16 l 8,0 0,-8 -8,0 c 0,-5.333333 0,-10.666667 0,-16 l -8,0 0,-8 -8,0 c 0,-5.333333 0,-10.666667 0,-16 -5.33333,0 -10.66667,0 -16,0 l 0,8 8,0 0,8 -8,0 0,8 0,8 8,0 0,-8 8,0 0,8 8,0 0,8 -8,0 0,-8 -8,0 0,8 -8,0 0,-8 -8,0 0,-8 -8,0 c 0,-5.333333 0,-10.666667 0,-16 l 8,0 0,-8 c -5.33333,0 -10.66667,0 -16,0 z m -8,24 0,-8 -8,0 0,8 z"/><rect width="8" height="8" x="88" y="96" style="fill:#000;fill-opacity:.50196081"/><rect width="8" height="8" x="96" y="0" style="fill:#000;fill-opacity:.50196081"/><path style="fill:#000;fill-opacity:.50196081" d="m 104,96 c 0,5.33333 0,10.66667 0,16 l -8,0 0,8 8,0 c 0,8.7128 0,15.44043 0,24 l 8,0 0,8 c 5.33333,0 10.66667,0 16,0 0,-5.33333 0,-10.66667 0,-16 -5.33333,0 -10.66667,0 -16,0 l 0,-8 8,0 0,-8 -8,0 c 0,-5.33333 0,-10.66667 0,-16 l 8,0 0,-8 c -5.33333,0 -10.66667,0 -16,0 z"/><path style="fill:#000;fill-opacity:.50196081" d="m 112,0 0,8 -8,0 0,8 c 5.33333,0 10.66667,0 16,0 l 0,-8 8,0 0,-8 c -5.33333,0 -10.66667,0 -16,0 z"/><rect width="8" height="8" x="112" y="24" style="fill:#000;fill-opacity:.50196081"/><path style="fill:#000;fill-opacity:.50196081" d="m 120,168 0,8 -8,0 c 0,5.33333 0,10.66667 0,16 l 8,0 0,-8 8,0 c 0,-5.33333 0,-10.66667 0,-16 z"/><rect width="8" height="8" x="112" y="224" style="fill:#000;fill-opacity:.50196081"/><path style="fill:#000;fill-opacity:.50196081" d="m 120,88 0,8 c 5.33333,0 10.66667,0 16,0 l 0,-8 c -5.33333,0 -10.66667,0 -16,0 z"/><rect width="8" height="8" x="120" y="112" style="fill:#000;fill-opacity:.50196081"/><path style="fill:#000;fill-opacity:.50196081" d="m 152,0 0,8 c -8,0 -16,0 -24,0 l 0,8 8,0 0,8 8,0 0,-8 c 5.33333,0 10.66667,0 16,0 l 0,-8 8,0 0,-8 c -5.33333,0 -10.66667,0 -16,0 z"/><rect width="8" height="8" x="128" y="24" style="fill:#000;fill-opacity:.50196081"/><path style="fill:#000;fill-opacity:.50196081" d="m 152,120 c 0,5.33333 0,10.66667 0,16 l -8,0 0,8 -8,0 0,8 8,0 0,8 c -5.33333,0 -10.66667,0 -16,0 l 0,8 8,0 0,8 8,0 0,-8 8,0 c 0,8 0,16 0,24 l -8,0 0,8 c 5.33333,0 10.66667,0 16,0 l 0,8 -8,0 0,8 c 8,0 16,0 24,0 l 0,-8 -8,0 0,-8 c 14.19229,0 25.78502,0 40,0 0,-5.33333 0,-10.66667 0,-16 l -8,0 0,-8 8,0 0,8 8,0 c 0,-5.33333 0,-10.66667 0,-16 l 8,0 c 0,5.33333 0,10.66667 0,16 l 8,0 c 0,-8 0,-16 0,-24 -14.19229,0 -25.78502,0 -40,0 l 0,-8 -8,0 0,8 -8,0 0,-8 8,0 0,-8 -8,0 0,-8 c -5.33333,0 -10.66667,0 -16,0 0,-5.33333 0,-10.66667 0,-16 z m 0,24 8,0 0,8 8,0 0,8 c -5.33333,0 -10.66667,0 -16,0 l 0,-8 z m 16,24 c 8,0 16,0 24,0 0,8 0,16 0,24 -8,0 -16,0 -24,0 0,-8 0,-16 0,-24 z"/><path style="fill:#000;fill-opacity:.50196081" d="m 128,184 0,8 c 5.33333,0 10.66667,0 16,0 l 0,-8 c -5.33333,0 -10.66667,0 -16,0 z"/><path style="fill:#000;fill-opacity:.50196081" d="m 128,216 0,8 8,0 0,8 c 5.33333,0 10.66667,0 16,0 l 0,-8 -8,0 0,-8 c -5.33333,0 -10.66667,0 -16,0 z"/><rect width="8" height="8" x="144" y="48" style="fill:#000;fill-opacity:.50196081"/><rect width="8" height="8" x="152" y="40" style="fill:#000;fill-opacity:.50196081"/><rect width="8" height="8" x="160" y="24" style="fill:#000;fill-opacity:.50196081"/><rect width="8" height="8" x="160" y="48" style="fill:#000;fill-opacity:.50196081"/><path style="fill:#000;fill-opacity:.50196081" d="m 176,0 c 0,19.025904 0,39.901059 0,56 19.32393,0 39.99847,0 56,0 0,-18.867701 0,-39.677597 0,-56 -18.92207,0 -38.71313,0 -56,0 z m 8,8 c 14.77609,0 26.14213,0 40,0 0,13.611095 0,28.156312 0,40 -13.6111,0 -28.15631,0 -40,0 0,-14.776094 0,-26.142134 0,-40 z"/><rect width="8" height="8" x="176" y="176" style="fill:#000;fill-opacity:.50196081"/><rect width="8" height="8" x="176" y="224" style="fill:#000;fill-opacity:.50196081"/><path style="fill:#000;fill-opacity:.50196081" d="m 208,208 0,8 c -8,0 -16,0 -24,0 l 0,8 8,0 0,8 c 10.83383,0 22.52101,0 32,0 l 0,-8 8,0 0,-8 0,-8 c -8,0 -16,0 -24,0 z"/><path style="fill:#000;fill-opacity:.50196081" d="m 192,16 c 0,8.054707 0,16.875713 0,24 8.05471,0 16.87571,0 24,0 0,-8.712801 0,-15.440427 0,-24 -8,0 -16,0 -24,0 z"/><rect width="8" height="8" x="200" y="144" style="fill:#000;fill-opacity:.50196081"/><rect width="8" height="8" x="208" y="72" style="fill:#000;fill-opacity:.50196081"/><rect width="8" height="8" x="208" y="136" style="fill:#000;fill-opacity:.50196081"/><rect width="8" height="8" x="216" y="64" style="fill:#000;fill-opacity:.50196081"/><path style="fill:#000;fill-opacity:.50196081" d="m 224,72 c 0,5.333333 0,10.666667 0,16 l -8,0 0,8 8,0 c 0,8.7128 0,15.44043 0,24 l 8,0 c 0,-18.40014 0,-31.414467 0,-48 z"/><path style="fill:#000;fill-opacity:.50196081" d="m 216,128 0,8 8,0 c 0,5.33333 0,10.66667 0,16 l 8,0 c 0,-8.7128 0,-15.44043 0,-24 -5.33333,0 -10.66667,0 -16,0 z"/></svg>