<?xml version="1.0" encoding="UTF-8" standalone="no"?>
<!-- Created with Inkscape (http://www.inkscape.org/) -->

<svg
   xmlns:dc="http://purl.org/dc/elements/1.1/"
   xmlns:cc="http://creativecommons.org/ns#"
   xmlns:rdf="http://www.w3.org/1999/02/22-rdf-syntax-ns#"
   xmlns:svg="http://www.w3.org/2000/svg"
   xmlns="http://www.w3.org/2000/svg"
   xmlns:sodipodi="http://sodipodi.sourceforge.net/DTD/sodipodi-0.dtd"
   xmlns:inkscape="http://www.inkscape.org/namespaces/inkscape"
   version="1.1"
   x="0px"
   y="0px"
   viewBox="0 0 64 64"
   style="enable-background:new 0 0 64 64;"
   xml:space="preserve"
   id="svg18"
   sodipodi:docname="open_vcard.svg"
   inkscape:version="0.92.3">
  <metadata>
    <rdf:RDF>
      <cc:Work rdf:about="">
        <dc:format>image/svg+xml</dc:format>
        <dc:type rdf:resource="http://purl.org/dc/dcmitype/StillImage"/>
        <dc:title/>
      </cc:Work>
    </rdf:RDF>
  </metadata>
  <path
      inkscape:connector-curvature="0"
      style="opacity:0.5;fill:#ffffff;stroke-width:0.90249997"
      d="M 33.371242,44.04417 H 19.578336 c -0.626335,0 -1.219278,-0.277067 -1.625403,-0.7581 -0.406125,-0.481935 -0.579405,-1.112782 -0.47291,-1.731897 0.477423,-2.79414 2.193075,-5.184863 4.604555,-6.524173 -1.04329,-1.117295 -1.637135,-2.5992 -1.637135,-4.18038 0,-1.749947 0.74366,-3.419572 2.040553,-4.578382 1.289672,-1.153395 2.948467,-1.683163 4.673144,-1.48732 2.773382,0.312265 5.004362,2.578442 5.303992,5.388827 0.19494,1.821245 -0.403417,3.574803 -1.600132,4.857255 2.410577,1.33931 4.127132,3.730935 4.603652,6.524173 0.105593,0.620017 -0.06679,1.250865 -0.47291,1.7328 -0.407027,0.481032 -0.999067,0.757197 -1.6245,0.757197 z"
      sodipodi:nodetypes="sscccsccccccs"/>
  <g>
    <rect
        style="opacity:0;fill:#FFFFFF;"
        width="64"
        height="64"/>
    <g>
      <g
          style="opacity:0.6;">
        <path
            style="fill:#FFFFFF;"
            d="M49.5,52h-37C10.57,52,9,50.43,9,48.5v-30c0-1.93,1.57-3.5,3.5-3.5h37c1.93,0,3.5,1.57,3.5,3.5v30 C53,50.43,51.43,52,49.5,52z M12.5,17c-0.827,0-1.5,0.673-1.5,1.5v30c0,0.827,0.673,1.5,1.5,1.5h37c0.827,0,1.5-0.673,1.5-1.5 v-30c0-0.827-0.673-1.5-1.5-1.5H12.5z"/>
      </g>
      <g
          style="opacity:0.6;">
        <path
            style="fill:#FFFFFF;"
            d="M55,47h-2v-2h2c0.473,0,1-0.616,1-1.5v-30c0-0.827-0.673-1.5-1.5-1.5h-37 c-0.884,0-1.5,0.527-1.5,1v2h-2v-2c0-1.654,1.57-3,3.5-3h37c1.93,0,3.5,1.57,3.5,3.5v30C58,45.43,56.654,47,55,47z"/>
      </g>
      <path
          style="fill:#FFFFFF;"
          d="M33.642,45.018H18.359c-0.694,0-1.351-0.307-1.801-0.84c-0.45-0.534-0.642-1.233-0.524-1.919 c0.529-3.096,2.43-5.745,5.102-7.229c-1.156-1.238-1.814-2.88-1.814-4.632c0-1.939,0.824-3.789,2.261-5.073 c1.429-1.278,3.267-1.865,5.178-1.648c3.073,0.346,5.545,2.857,5.877,5.971c0.216,2.018-0.447,3.961-1.773,5.382 c2.671,1.484,4.573,4.134,5.101,7.229c0.117,0.687-0.074,1.386-0.524,1.92C34.991,44.712,34.335,45.018,33.642,45.018z  M25.997,25.633c-1.14,0-2.218,0.41-3.082,1.183c-1.013,0.905-1.594,2.21-1.594,3.582c0,1.651,0.827,3.162,2.211,4.042 l1.732,1.101l-1.935,0.686c-2.782,0.985-4.822,3.426-5.325,6.369c-0.024,0.143,0.041,0.245,0.081,0.293 c0.041,0.049,0.131,0.13,0.272,0.13h15.283c0.141,0,0.23-0.081,0.271-0.13c0.041-0.048,0.105-0.15,0.082-0.293 c-0.503-2.943-2.543-5.384-5.325-6.369l-1.936-0.686l1.733-1.101c1.543-0.98,2.379-2.735,2.182-4.579 c-0.234-2.19-1.964-3.955-4.113-4.197C26.356,25.643,26.176,25.633,25.997,25.633z"/>
    </g>
  </g>
</svg>
