<svg xmlns="http://www.w3.org/2000/svg" xmlns:svg="http://www.w3.org/2000/svg" id="Layer_1" width="64" height="64" x="0" style="enable-background:new 0 0 64 64" y="0" version="1.1" viewBox="0 0 64 64" xml:space="preserve"><metadata/><g><rect style="opacity:0;fill:#fff" width="64" height="64"/><g><path style="opacity:.6;fill:#fff;stroke-width:1.28167105" d="m 31.771484,7 c -0.244727,0.00417 -0.488445,0.079067 -0.699218,0.2226562 -0.442047,0.301281 -10.810547,7.5744458 -10.810547,25.4179688 0,17.870446 9.834618,23.868527 10.225413,24.115962 0.213976,0.134615 0.365847,0.165066 0.601544,0.170478 0.246738,0.0057 0.388072,-0.02229 0.64796,-0.174844 0.448,-0.262967 11.589536,-6.591587 11.589536,-24.111596 0,-18.380701 -10.404328,-25.1638732 -10.847656,-25.4433594 C 32.262617,7.0613687 32.016212,6.9958333 31.771484,7 Z m 0.04883,2.9023438 c 2.230736,1.8269162 8.905518,8.6958732 8.94336,22.7382812 0.04062,15.074892 -8.558404,20.784414 -9.667969,21.916016 -0.594345,-0.442336 -8.269531,-6.01186 -8.269531,-21.916016 0,-13.796102 6.773655,-20.810083 8.99414,-22.7382812 z" transform="matrix(1.2812956,0,0,1.2820465,-3.168361,-2.0177287) matrix(0.78046003,0,0,0.78000291,2.4727791,1.5738343)"/><path style="opacity:.6;fill:#fff;stroke-width:.9866966" d="M 43.423976,20.034 H 11.471025 c -0.551189,0 -0.99853,-0.436802 -0.99853,-0.975 0,-0.538202 0.447341,-0.975 0.99853,-0.975 h 31.952951 c 0.552187,0 0.99853,0.436801 0.99853,0.975 0,0.538202 -0.446343,0.975 -0.99853,0.975 z" transform="matrix(1.2812956,0,0,1.2820465,-3.168361,-2.0177287)"/><path style="opacity:.6;fill:#fff;stroke-width:1.38533151" d="M 42.454161,34.966 H 12.44084 c -1.086527,0 -1.968345,-0.435827 -1.968345,-0.975 0,-0.539177 0.881818,-0.975 1.968345,-0.975 h 30.013321 c 1.086527,0 1.968345,0.435826 1.968345,0.975 0,0.539177 -0.881818,0.975 -1.968345,0.975 z" transform="matrix(1.2812956,0,0,1.2820465,-3.168361,-2.0177287)"/></g><circle style="opacity:1;fill:none;fill-opacity:1;stroke:#fff;stroke-width:2.5;stroke-linecap:round;stroke-linejoin:round;stroke-miterlimit:4;stroke-dasharray:none;stroke-dashoffset:0;stroke-opacity:1" cx="32" cy="32" r="23.75"/></g></svg>